<svg id="visual" viewBox="0 0 1920 300" width="1920" height="300" xmlns="http://www.w3.org/2000/svg" xmlns:xlink="http://www.w3.org/1999/xlink" version="1.1"><rect x="0" y="0" width="1920" height="300" fill="#0c222f"></rect><path d="M0 107L29.2 119.7C58.3 132.3 116.7 157.7 174.8 164.7C233 171.7 291 160.3 349.2 156C407.3 151.7 465.7 154.3 523.8 150C582 145.7 640 134.3 698.2 124.8C756.3 115.3 814.7 107.7 872.8 105.2C931 102.7 989 105.3 1047.2 109C1105.3 112.7 1163.7 117.3 1221.8 114.7C1280 112 1338 102 1396.2 112.5C1454.3 123 1512.7 154 1570.8 164.5C1629 175 1687 165 1745.2 158.5C1803.3 152 1861.7 149 1890.8 147.5L1920 146L1920 301L1890.8 301C1861.7 301 1803.3 301 1745.2 301C1687 301 1629 301 1570.8 301C1512.7 301 1454.3 301 1396.2 301C1338 301 1280 301 1221.8 301C1163.7 301 1105.3 301 1047.2 301C989 301 931 301 872.8 301C814.7 301 756.3 301 698.2 301C640 301 582 301 523.8 301C465.7 301 407.3 301 349.2 301C291 301 233 301 174.8 301C116.7 301 58.3 301 29.2 301L0 301Z" fill="#974000"></path><path d="M0 172L29.2 156.3C58.3 140.7 116.7 109.3 174.8 97.7C233 86 291 94 349.2 105C407.3 116 465.7 130 523.8 133.5C582 137 640 130 698.2 140.5C756.3 151 814.7 179 872.8 186.8C931 194.7 989 182.3 1047.2 161.8C1105.3 141.3 1163.7 112.7 1221.8 116.2C1280 119.7 1338 155.3 1396.2 167C1454.3 178.7 1512.7 166.3 1570.8 153.8C1629 141.3 1687 128.7 1745.2 124C1803.3 119.3 1861.7 122.7 1890.8 124.3L1920 126L1920 301L1890.8 301C1861.7 301 1803.3 301 1745.2 301C1687 301 1629 301 1570.8 301C1512.7 301 1454.3 301 1396.2 301C1338 301 1280 301 1221.8 301C1163.7 301 1105.3 301 1047.2 301C989 301 931 301 872.8 301C814.7 301 756.3 301 698.2 301C640 301 582 301 523.8 301C465.7 301 407.3 301 349.2 301C291 301 233 301 174.8 301C116.7 301 58.3 301 29.2 301L0 301Z" fill="#b05508"></path><path d="M0 219L29.2 210.7C58.3 202.3 116.7 185.7 174.8 175.2C233 164.7 291 160.3 349.2 166.7C407.3 173 465.7 190 523.8 197.8C582 205.7 640 204.3 698.2 195C756.3 185.7 814.7 168.3 872.8 163.8C931 159.3 989 167.7 1047.2 174.8C1105.3 182 1163.7 188 1221.8 191.2C1280 194.3 1338 194.7 1396.2 196.5C1454.3 198.3 1512.7 201.7 1570.8 198.2C1629 194.7 1687 184.3 1745.2 188.8C1803.3 193.3 1861.7 212.7 1890.8 222.3L1920 232L1920 301L1890.8 301C1861.7 301 1803.3 301 1745.2 301C1687 301 1629 301 1570.8 301C1512.7 301 1454.3 301 1396.2 301C1338 301 1280 301 1221.8 301C1163.7 301 1105.3 301 1047.2 301C989 301 931 301 872.8 301C814.7 301 756.3 301 698.2 301C640 301 582 301 523.8 301C465.7 301 407.3 301 349.2 301C291 301 233 301 174.8 301C116.7 301 58.3 301 29.2 301L0 301Z" fill="#c86a13"></path><path d="M0 204L29.2 206.3C58.3 208.7 116.7 213.3 174.8 215.2C233 217 291 216 349.2 213.5C407.3 211 465.7 207 523.8 202.7C582 198.3 640 193.7 698.2 193C756.3 192.3 814.7 195.7 872.8 195C931 194.3 989 189.7 1047.2 190.7C1105.3 191.7 1163.7 198.3 1221.8 203.7C1280 209 1338 213 1396.2 220.7C1454.3 228.3 1512.7 239.7 1570.8 246.7C1629 253.7 1687 256.3 1745.2 252.7C1803.3 249 1861.7 239 1890.8 234L1920 229L1920 301L1890.8 301C1861.7 301 1803.3 301 1745.2 301C1687 301 1629 301 1570.8 301C1512.7 301 1454.3 301 1396.2 301C1338 301 1280 301 1221.8 301C1163.7 301 1105.3 301 1047.2 301C989 301 931 301 872.8 301C814.7 301 756.3 301 698.2 301C640 301 582 301 523.8 301C465.7 301 407.3 301 349.2 301C291 301 233 301 174.8 301C116.7 301 58.3 301 29.2 301L0 301Z" fill="#e0811d"></path><path d="M0 233L29.2 234.8C58.3 236.7 116.7 240.3 174.8 246.3C233 252.3 291 260.7 349.2 266C407.3 271.3 465.7 273.7 523.8 269.8C582 266 640 256 698.2 250C756.3 244 814.7 242 872.8 239.7C931 237.3 989 234.7 1047.2 232.8C1105.3 231 1163.7 230 1221.8 236.2C1280 242.3 1338 255.7 1396.2 258.5C1454.3 261.3 1512.7 253.7 1570.8 252C1629 250.3 1687 254.7 1745.2 257.7C1803.3 260.7 1861.7 262.3 1890.8 263.2L1920 264L1920 301L1890.8 301C1861.7 301 1803.3 301 1745.2 301C1687 301 1629 301 1570.8 301C1512.7 301 1454.3 301 1396.2 301C1338 301 1280 301 1221.8 301C1163.7 301 1105.3 301 1047.2 301C989 301 931 301 872.8 301C814.7 301 756.3 301 698.2 301C640 301 582 301 523.8 301C465.7 301 407.3 301 349.2 301C291 301 233 301 174.8 301C116.7 301 58.3 301 29.2 301L0 301Z" fill="#f89827"></path></svg>