<svg id="visual" viewBox="0 0 1920 300" width="1920" height="300" xmlns="http://www.w3.org/2000/svg" xmlns:xlink="http://www.w3.org/1999/xlink" version="1.1">
    <rect x="0" y="0" width="1920" height="300" fill="#0c222f"></rect>
    <path d="M0 184L21.3 183.7C42.7 183.3 85.3 182.7 128 176.8C170.7 171 213.3 160 256 163.3C298.7 166.7 341.3 184.3 384 193.2C426.7 202 469.3 202 512 208C554.7 214 597.3 226 640 226.8C682.7 227.7 725.3 217.3 768 215.8C810.7 214.3 853.3 221.7 896 228.7C938.7 235.7 981.3 242.3 1024 228C1066.7 213.7 1109.3 178.3 1152 165.5C1194.7 152.7 1237.3 162.3 1280 156.5C1322.7 150.7 1365.3 129.3 1408 119.8C1450.7 110.3 1493.3 112.7 1536 132C1578.7 151.3 1621.3 187.7 1664 187C1706.7 186.3 1749.3 148.7 1792 149.5C1834.7 150.3 1877.3 189.7 1898.7 209.3L1920 229L1920 0L1898.7 0C1877.3 0 1834.7 0 1792 0C1749.3 0 1706.7 0 1664 0C1621.3 0 1578.7 0 1536 0C1493.3 0 1450.7 0 1408 0C1365.3 0 1322.7 0 1280 0C1237.3 0 1194.7 0 1152 0C1109.3 0 1066.7 0 1024 0C981.3 0 938.7 0 896 0C853.3 0 810.7 0 768 0C725.3 0 682.7 0 640 0C597.3 0 554.7 0 512 0C469.3 0 426.7 0 384 0C341.3 0 298.7 0 256 0C213.3 0 170.7 0 128 0C85.3 0 42.7 0 21.3 0L0 0Z" fill="#893e00"></path>
    <path d="M0 150L21.3 152.2C42.7 154.3 85.3 158.7 128 152.2C170.7 145.7 213.3 128.3 256 132C298.7 135.7 341.3 160.3 384 157.3C426.7 154.3 469.3 123.7 512 123.2C554.7 122.7 597.3 152.3 640 165.8C682.7 179.3 725.3 176.7 768 175.8C810.7 175 853.3 176 896 167.3C938.7 158.7 981.3 140.3 1024 138C1066.7 135.7 1109.3 149.3 1152 146C1194.7 142.7 1237.3 122.3 1280 124.7C1322.7 127 1365.3 152 1408 155.5C1450.7 159 1493.3 141 1536 128.2C1578.7 115.3 1621.3 107.7 1664 103.2C1706.7 98.7 1749.3 97.3 1792 96.3C1834.7 95.3 1877.3 94.7 1898.7 94.3L1920 94L1920 0L1898.7 0C1877.3 0 1834.7 0 1792 0C1749.3 0 1706.7 0 1664 0C1621.3 0 1578.7 0 1536 0C1493.3 0 1450.7 0 1408 0C1365.3 0 1322.7 0 1280 0C1237.3 0 1194.7 0 1152 0C1109.3 0 1066.7 0 1024 0C981.3 0 938.7 0 896 0C853.3 0 810.7 0 768 0C725.3 0 682.7 0 640 0C597.3 0 554.7 0 512 0C469.3 0 426.7 0 384 0C341.3 0 298.7 0 256 0C213.3 0 170.7 0 128 0C85.3 0 42.7 0 21.3 0L0 0Z" fill="#a45308"></path>
    <path d="M0 127L21.3 121.5C42.7 116 85.3 105 128 106.2C170.7 107.3 213.3 120.7 256 123.2C298.7 125.7 341.3 117.3 384 117.5C426.7 117.7 469.3 126.3 512 130.7C554.7 135 597.3 135 640 128.2C682.7 121.3 725.3 107.7 768 97.5C810.7 87.3 853.3 80.7 896 78.5C938.7 76.3 981.3 78.7 1024 83.7C1066.7 88.7 1109.3 96.3 1152 99.3C1194.7 102.3 1237.3 100.7 1280 107.2C1322.7 113.7 1365.3 128.3 1408 128C1450.7 127.7 1493.3 112.3 1536 114.2C1578.7 116 1621.3 135 1664 143.3C1706.7 151.7 1749.3 149.3 1792 143.7C1834.7 138 1877.3 129 1898.7 124.5L1920 120L1920 0L1898.7 0C1877.3 0 1834.7 0 1792 0C1749.3 0 1706.7 0 1664 0C1621.3 0 1578.7 0 1536 0C1493.3 0 1450.7 0 1408 0C1365.3 0 1322.7 0 1280 0C1237.3 0 1194.7 0 1152 0C1109.3 0 1066.7 0 1024 0C981.3 0 938.7 0 896 0C853.3 0 810.7 0 768 0C725.3 0 682.7 0 640 0C597.3 0 554.7 0 512 0C469.3 0 426.7 0 384 0C341.3 0 298.7 0 256 0C213.3 0 170.7 0 128 0C85.3 0 42.7 0 21.3 0L0 0Z" fill="#c06913"></path>
    <path d="M0 67L21.3 73.8C42.7 80.7 85.3 94.3 128 97.3C170.7 100.3 213.3 92.7 256 91.8C298.7 91 341.3 97 384 95.5C426.7 94 469.3 85 512 77.2C554.7 69.3 597.3 62.7 640 58C682.7 53.3 725.3 50.7 768 53.5C810.7 56.3 853.3 64.7 896 74.5C938.7 84.3 981.3 95.7 1024 90.7C1066.7 85.7 1109.3 64.3 1152 63.7C1194.7 63 1237.3 83 1280 87.5C1322.7 92 1365.3 81 1408 79.3C1450.7 77.7 1493.3 85.3 1536 91.5C1578.7 97.7 1621.3 102.3 1664 102C1706.7 101.7 1749.3 96.3 1792 86.7C1834.7 77 1877.3 63 1898.7 56L1920 49L1920 0L1898.7 0C1877.3 0 1834.7 0 1792 0C1749.3 0 1706.7 0 1664 0C1621.3 0 1578.7 0 1536 0C1493.3 0 1450.7 0 1408 0C1365.3 0 1322.7 0 1280 0C1237.3 0 1194.7 0 1152 0C1109.3 0 1066.7 0 1024 0C981.3 0 938.7 0 896 0C853.3 0 810.7 0 768 0C725.3 0 682.7 0 640 0C597.3 0 554.7 0 512 0C469.3 0 426.7 0 384 0C341.3 0 298.7 0 256 0C213.3 0 170.7 0 128 0C85.3 0 42.7 0 21.3 0L0 0Z" fill="#dc801d"></path>
    <path d="M0 71L21.3 66.2C42.7 61.3 85.3 51.7 128 50.5C170.7 49.3 213.3 56.7 256 56.8C298.7 57 341.3 50 384 44.8C426.7 39.7 469.3 36.3 512 36.5C554.7 36.7 597.3 40.3 640 38.2C682.7 36 725.3 28 768 25C810.7 22 853.3 24 896 26.2C938.7 28.3 981.3 30.7 1024 34C1066.7 37.3 1109.3 41.7 1152 44.5C1194.7 47.3 1237.3 48.7 1280 52.5C1322.7 56.3 1365.3 62.7 1408 66.7C1450.7 70.7 1493.3 72.3 1536 72C1578.7 71.7 1621.3 69.3 1664 67.7C1706.7 66 1749.3 65 1792 63.5C1834.7 62 1877.3 60 1898.7 59L1920 58L1920 0L1898.7 0C1877.3 0 1834.7 0 1792 0C1749.3 0 1706.7 0 1664 0C1621.3 0 1578.7 0 1536 0C1493.3 0 1450.7 0 1408 0C1365.3 0 1322.7 0 1280 0C1237.3 0 1194.7 0 1152 0C1109.3 0 1066.7 0 1024 0C981.3 0 938.7 0 896 0C853.3 0 810.7 0 768 0C725.3 0 682.7 0 640 0C597.3 0 554.7 0 512 0C469.3 0 426.7 0 384 0C341.3 0 298.7 0 256 0C213.3 0 170.7 0 128 0C85.3 0 42.7 0 21.3 0L0 0Z" fill="#f89827"></path>
</svg>