<svg id="visual" viewBox="0 0 1920 300" width="1920" height="300" xmlns="http://www.w3.org/2000/svg" xmlns:xlink="http://www.w3.org/1999/xlink" version="1.1"><rect x="0" y="0" width="1920" height="300" fill="#0c222f"></rect><path d="M0 118L29.2 133.8C58.3 149.7 116.7 181.3 174.8 200.8C233 220.3 291 227.7 349.2 228.7C407.3 229.7 465.7 224.3 523.8 208.3C582 192.3 640 165.7 698.2 160.5C756.3 155.3 814.7 171.7 872.8 187.8C931 204 989 220 1047.2 213C1105.3 206 1163.7 176 1221.8 170.2C1280 164.3 1338 182.7 1396.2 178.8C1454.3 175 1512.7 149 1570.8 142.7C1629 136.3 1687 149.7 1745.2 152.7C1803.3 155.7 1861.7 148.3 1890.8 144.7L1920 141L1920 0L1890.8 0C1861.7 0 1803.3 0 1745.2 0C1687 0 1629 0 1570.8 0C1512.7 0 1454.3 0 1396.2 0C1338 0 1280 0 1221.8 0C1163.7 0 1105.3 0 1047.2 0C989 0 931 0 872.8 0C814.7 0 756.3 0 698.2 0C640 0 582 0 523.8 0C465.7 0 407.3 0 349.2 0C291 0 233 0 174.8 0C116.7 0 58.3 0 29.2 0L0 0Z" fill="#974000"></path><path d="M0 177L29.2 177.7C58.3 178.3 116.7 179.7 174.8 186.2C233 192.7 291 204.3 349.2 196.5C407.3 188.7 465.7 161.3 523.8 142C582 122.7 640 111.3 698.2 116.8C756.3 122.3 814.7 144.7 872.8 143.5C931 142.3 989 117.7 1047.2 113.5C1105.3 109.3 1163.7 125.7 1221.8 135.5C1280 145.3 1338 148.7 1396.2 148C1454.3 147.3 1512.7 142.7 1570.8 151.2C1629 159.7 1687 181.3 1745.2 174.2C1803.3 167 1861.7 131 1890.8 113L1920 95L1920 0L1890.8 0C1861.7 0 1803.3 0 1745.2 0C1687 0 1629 0 1570.8 0C1512.7 0 1454.3 0 1396.2 0C1338 0 1280 0 1221.8 0C1163.7 0 1105.3 0 1047.2 0C989 0 931 0 872.8 0C814.7 0 756.3 0 698.2 0C640 0 582 0 523.8 0C465.7 0 407.3 0 349.2 0C291 0 233 0 174.8 0C116.7 0 58.3 0 29.2 0L0 0Z" fill="#b05508"></path><path d="M0 77L29.2 92.5C58.3 108 116.7 139 174.8 148C233 157 291 144 349.2 135.5C407.3 127 465.7 123 523.8 111.8C582 100.7 640 82.3 698.2 88.7C756.3 95 814.7 126 872.8 130.7C931 135.3 989 113.7 1047.2 100.7C1105.3 87.7 1163.7 83.3 1221.8 87.7C1280 92 1338 105 1396.2 120C1454.3 135 1512.7 152 1570.8 147.5C1629 143 1687 117 1745.2 103.3C1803.3 89.7 1861.7 88.3 1890.8 87.7L1920 87L1920 0L1890.8 0C1861.7 0 1803.3 0 1745.2 0C1687 0 1629 0 1570.8 0C1512.7 0 1454.3 0 1396.2 0C1338 0 1280 0 1221.8 0C1163.7 0 1105.3 0 1047.2 0C989 0 931 0 872.8 0C814.7 0 756.3 0 698.2 0C640 0 582 0 523.8 0C465.7 0 407.3 0 349.2 0C291 0 233 0 174.8 0C116.7 0 58.3 0 29.2 0L0 0Z" fill="#c86a13"></path><path d="M0 127L29.2 122.2C58.3 117.3 116.7 107.7 174.8 105.3C233 103 291 108 349.2 111.2C407.3 114.3 465.7 115.7 523.8 108.3C582 101 640 85 698.2 77C756.3 69 814.7 69 872.8 74.3C931 79.7 989 90.3 1047.2 93.5C1105.3 96.7 1163.7 92.3 1221.8 95.2C1280 98 1338 108 1396.2 114.3C1454.3 120.7 1512.7 123.3 1570.8 115.8C1629 108.3 1687 90.7 1745.2 87.2C1803.3 83.7 1861.7 94.3 1890.8 99.7L1920 105L1920 0L1890.8 0C1861.7 0 1803.3 0 1745.2 0C1687 0 1629 0 1570.8 0C1512.7 0 1454.3 0 1396.2 0C1338 0 1280 0 1221.8 0C1163.7 0 1105.3 0 1047.2 0C989 0 931 0 872.8 0C814.7 0 756.3 0 698.2 0C640 0 582 0 523.8 0C465.7 0 407.3 0 349.2 0C291 0 233 0 174.8 0C116.7 0 58.3 0 29.2 0L0 0Z" fill="#e0811d"></path><path d="M0 80L29.2 79.5C58.3 79 116.7 78 174.8 68.5C233 59 291 41 349.2 39.7C407.3 38.3 465.7 53.7 523.8 55.8C582 58 640 47 698.2 44.7C756.3 42.3 814.7 48.7 872.8 45.3C931 42 989 29 1047.2 31.7C1105.3 34.3 1163.7 52.7 1221.8 62.3C1280 72 1338 73 1396.2 63.7C1454.3 54.3 1512.7 34.7 1570.8 25.2C1629 15.7 1687 16.3 1745.2 23.2C1803.3 30 1861.7 43 1890.8 49.5L1920 56L1920 0L1890.8 0C1861.7 0 1803.3 0 1745.2 0C1687 0 1629 0 1570.8 0C1512.7 0 1454.3 0 1396.2 0C1338 0 1280 0 1221.8 0C1163.7 0 1105.3 0 1047.2 0C989 0 931 0 872.8 0C814.7 0 756.3 0 698.2 0C640 0 582 0 523.8 0C465.7 0 407.3 0 349.2 0C291 0 233 0 174.8 0C116.7 0 58.3 0 29.2 0L0 0Z" fill="#f89827"></path></svg>